# xmcd
#
# Track frame offsets:
#	183
#	11775
#	26153
#	36528
#	52045
#	63195
#	76170
#	90525
#	101730
#	113620
#	128050
#	140250
#	150973
#	161688
#
# Disc length: 2338
#
# Revision: 3
# Processed by: cddbd v1.5.1PL0 Copyright (c) Steve Scherf et al.
# Submitted via: ExactAudioCopy v0.95a4
# Normalized: r2:TDELIM( - )
#
DISCID=ad09200e
DTITLE=Various Artist - Blues For Big Town
DYEAR=1989
DGENRE=
TTITLE0=John Lee Hooker - Walkin' The Boogie
TTITLE1=John Lee Hooker - Blues For Big Town
TTITLE2=John Lee Hooker - Big Fine Mama
TTITLE3=John Lee Hooker - Blues For Christmas
TTITLE4=Calvin Frazier - Lily Mae
TTITLE5=Calvin Frazier - Have Blues Will Travel
TTITLE6=Katie Watkins - Trying To Get You Off My Mind
TTITLE7=Big  Ed and His Combo - Biscuit Baking Mama
TTITLE8=Big  Ed and His Combo - Superstition
TTITLE9=Bobo Jenkins - Democrat Blues
TTITLE10=Bobo Jenkins - Bad Luck And Trouble
TTITLE11=Eddie Burns - Treat Me Like I Treat You
TTITLE12=Eddie Burns - Don't Cha Leave Me Baby
TTITLE13=Texas Red and Jimmy - Black Snake Blues
EXTD=
EXTT0=
EXTT1=
EXTT2=
EXTT3=
EXTT4=
EXTT5=
EXTT6=
EXTT7=
EXTT8=
EXTT9=
EXTT10=
EXTT11=
EXTT12=
EXTT13=
PLAYORDER=
